<svg width="220" height="80" viewBox="0 0 220 80" fill="none" xmlns="http://www.w3.org/2000/svg"><rect x="0" y="0" width="11" height="11" fill='yellow'/><rect x="10" y="0" width="11" height="11" fill='rgba(1,1,1,0)'/><rect x="20" y="0" width="11" height="11" fill='yellow'/><rect x="30" y="0" width="11" height="11" fill='rgba(1,1,1,0)'/><rect x="40" y="0" width="11" height="11" fill='yellow'/><rect x="50" y="0" width="11" height="11" fill='rgba(1,1,1,0)'/><rect x="60" y="0" width="11" height="11" fill='yellow'/><rect x="70" y="0" width="11" height="11" fill='rgba(1,1,1,0)'/><rect x="80" y="0" width="11" height="11" fill='yellow'/><rect x="90" y="0" width="11" height="11" fill='rgba(1,1,1,0)'/><rect x="100" y="0" width="11" height="11" fill='yellow'/><rect x="110" y="0" width="11" height="11" fill='rgba(1,1,1,0)'/><rect x="120" y="0" width="11" height="11" fill='yellow'/><rect x="130" y="0" width="11" height="11" fill='rgba(1,1,1,0)'/><rect x="140" y="0" width="11" height="11" fill='yellow'/><rect x="150" y="0" width="11" height="11" fill='rgba(1,1,1,0)'/><rect x="160" y="0" width="11" height="11" fill='yellow'/><rect x="170" y="0" width="11" height="11" fill='rgba(1,1,1,0)'/><rect x="180" y="0" width="11" height="11" fill='yellow'/><rect x="190" y="0" width="11" height="11" fill='rgba(1,1,1,0)'/><rect x="200" y="0" width="11" height="11" fill='yellow'/><rect x="210" y="0" width="11" height="11" fill='rgba(1,1,1,0)'/><rect x="0" y="10" width="11" height="11" fill='none'/><rect x="10" y="10" width="11" height="11" fill='yellow'/><rect x="20" y="10" width="11" height="11" fill='purple'/><rect x="30" y="10" width="11" height="11" fill='purple'/><rect x="40" y="10" width="11" height="11" fill='rgba(1,1,1,0)'/><rect x="50" y="10" width="11" height="11" fill='yellow'/><rect x="60" y="10" width="11" height="11" fill='none'/><rect x="70" y="10" width="11" height="11" fill='yellow'/><rect x="80" y="10" width="11" height="11" fill='none'/><rect x="90" y="10" width="11" height="11" fill='yellow'/><rect x="100" y="10" width="11" height="11" fill='purple'/><rect x="110" y="10" width="11" height="11" fill='purple'/><rect x="120" y="10" width="11" height="11" fill='none'/><rect x="130" y="10" width="11" height="11" fill='yellow'/><rect x="140" y="10" width="11" height="11" fill='none'/><rect x="150" y="10" width="11" height="11" fill='yellow'/><rect x="160" y="10" width="11" height="11" fill='none'/><rect x="170" y="10" width="11" height="11" fill='yellow'/><rect x="180" y="10" width="11" height="11" fill='none'/><rect x="190" y="10" width="11" height="11" fill='yellow'/><rect x="200" y="10" width="11" height="11" fill='none'/><rect x="210" y="10" width="11" height="11" fill='yellow'/><rect x="0" y="20" width="11" height="11" fill='yellow'/><rect x="10" y="20" width="11" height="11" fill='purple'/><rect x="20" y="20" width="11" height="11" fill='yellow'/><rect x="30" y="20" width="11" height="11" fill='none'/><rect x="40" y="20" width="11" height="11" fill='purple'/><rect x="50" y="20" width="11" height="11" fill='none'/><rect x="60" y="20" width="11" height="11" fill='yellow'/><rect x="70" y="20" width="11" height="11" fill='none'/><rect x="80" y="20" width="11" height="11" fill='yellow'/><rect x="90" y="20" width="11" height="11" fill='none'/><rect x="100" y="20" width="11" height="11" fill='purple'/><rect x="110" y="20" width="11" height="11" fill='none'/><rect x="120" y="20" width="11" height="11" fill='purple'/><rect x="130" y="20" width="11" height="11" fill='none'/><rect x="140" y="20" width="11" height="11" fill='yellow'/><rect x="150" y="20" width="11" height="11" fill='none'/><rect x="160" y="20" width="11" height="11" fill='yellow'/><rect x="170" y="20" width="11" height="11" fill='none'/><rect x="180" y="20" width="11" height="11" fill='yellow'/><rect x="190" y="20" width="11" height="11" fill='none'/><rect x="200" y="20" width="11" height="11" fill='yellow'/><rect x="210" y="20" width="11" height="11" fill='none'/><rect x="0" y="30" width="11" height="11" fill='rgba(1,1,1,0)'/><rect x="10" y="30" width="11" height="11" fill='purple'/><rect x="20" y="30" width="11" height="11" fill='rgba(1,1,1,0)'/><rect x="30" y="30" width="11" height="11" fill='purple'/><rect x="40" y="30" width="11" height="11" fill='purple'/><rect x="50" y="30" width="11" height="11" fill='yellow'/><rect x="60" y="30" width="11" height="11" fill='purple'/><rect x="70" y="30" width="11" height="11" fill='yellow'/><rect x="80" y="30" width="11" height="11" fill='purple'/><rect x="90" y="30" width="11" height="11" fill='yellow'/><rect x="100" y="30" width="11" height="11" fill='purple'/><rect x="110" y="30" width="11" height="11" fill='yellow'/><rect x="120" y="30" width="11" height="11" fill='purple'/><rect x="130" y="30" width="11" height="11" fill='yellow'/><rect x="140" y="30" width="11" height="11" fill='none'/><rect x="150" y="30" width="11" height="11" fill='purple'/><rect x="160" y="30" width="11" height="11" fill='none'/><rect x="170" y="30" width="11" height="11" fill='yellow'/><rect x="180" y="30" width="11" height="11" fill='purple'/><rect x="190" y="30" width="11" height="11" fill='yellow'/><rect x="200" y="30" width="11" height="11" fill='purple'/><rect x="210" y="30" width="11" height="11" fill='yellow'/><rect x="0" y="40" width="11" height="11" fill='yellow'/><rect x="10" y="40" width="11" height="11" fill='purple'/><rect x="20" y="40" width="11" height="11" fill='purple'/><rect x="30" y="40" width="11" height="11" fill='rgba(1,1,1,0)'/><rect x="40" y="40" width="11" height="11" fill='yellow'/><rect x="50" y="40" width="11" height="11" fill='none'/><rect x="60" y="40" width="11" height="11" fill='purple'/><rect x="70" y="40" width="11" height="11" fill='none'/><rect x="80" y="40" width="11" height="11" fill='purple'/><rect x="90" y="40" width="11" height="11" fill='none'/><rect x="100" y="40" width="11" height="11" fill='purple'/><rect x="110" y="40" width="11" height="11" fill='purple'/><rect x="120" y="40" width="11" height="11" fill='yellow'/><rect x="130" y="40" width="11" height="11" fill='none'/><rect x="140" y="40" width="11" height="11" fill='purple'/><rect x="150" y="40" width="11" height="11" fill='none'/><rect x="160" y="40" width="11" height="11" fill='purple'/><rect x="170" y="40" width="11" height="11" fill='none'/><rect x="180" y="40" width="11" height="11" fill='purple'/><rect x="190" y="40" width="11" height="11" fill='none'/><rect x="200" y="40" width="11" height="11" fill='purple'/><rect x="210" y="40" width="11" height="11" fill='none'/><rect x="0" y="50" width="11" height="11" fill='rgba(1,1,1,0)'/><rect x="10" y="50" width="11" height="11" fill='purple'/><rect x="20" y="50" width="11" height="11" fill='none'/><rect x="30" y="50" width="11" height="11" fill='yellow'/><rect x="40" y="50" width="11" height="11" fill='purple'/><rect x="50" y="50" width="11" height="11" fill='yellow'/><rect x="60" y="50" width="11" height="11" fill='none'/><rect x="70" y="50" width="11" height="11" fill='purple'/><rect x="80" y="50" width="11" height="11" fill='none'/><rect x="90" y="50" width="11" height="11" fill='yellow'/><rect x="100" y="50" width="11" height="11" fill='purple'/><rect x="110" y="50" width="11" height="11" fill='yellow'/><rect x="120" y="50" width="11" height="11" fill='purple'/><rect x="130" y="50" width="11" height="11" fill='yellow'/><rect x="140" y="50" width="11" height="11" fill='purple'/><rect x="150" y="50" width="11" height="11" fill='yellow'/><rect x="160" y="50" width="11" height="11" fill='purple'/><rect x="170" y="50" width="11" height="11" fill='yellow'/><rect x="180" y="50" width="11" height="11" fill='none'/><rect x="190" y="50" width="11" height="11" fill='purple'/><rect x="200" y="50" width="11" height="11" fill='none'/><rect x="210" y="50" width="11" height="11" fill='yellow'/><rect x="0" y="60" width="11" height="11" fill='yellow'/><rect x="10" y="60" width="11" height="11" fill='purple'/><rect x="20" y="60" width="11" height="11" fill='yellow'/><rect x="30" y="60" width="11" height="11" fill='none'/><rect x="40" y="60" width="11" height="11" fill='purple'/><rect x="50" y="60" width="11" height="11" fill='rgba(1,1,1,0)'/><rect x="60" y="60" width="11" height="11" fill='purple'/><rect x="70" y="60" width="11" height="11" fill='rgba(1,1,1,0)'/><rect x="80" y="60" width="11" height="11" fill='purple'/><rect x="90" y="60" width="11" height="11" fill='none'/><rect x="100" y="60" width="11" height="11" fill='purple'/><rect x="110" y="60" width="11" height="11" fill='none'/><rect x="120" y="60" width="11" height="11" fill='purple'/><rect x="130" y="60" width="11" height="11" fill='none'/><rect x="140" y="60" width="11" height="11" fill='purple'/><rect x="150" y="60" width="11" height="11" fill='none'/><rect x="160" y="60" width="11" height="11" fill='purple'/><rect x="170" y="60" width="11" height="11" fill='none'/><rect x="180" y="60" width="11" height="11" fill='purple'/><rect x="190" y="60" width="11" height="11" fill='none'/><rect x="200" y="60" width="11" height="11" fill='purple'/><rect x="210" y="60" width="11" height="11" fill='none'/><rect x="0" y="70" width="11" height="11" fill='purple'/><rect x="10" y="70" width="11" height="11" fill='purple'/><rect x="20" y="70" width="11" height="11" fill='purple'/><rect x="30" y="70" width="11" height="11" fill='yellow'/><rect x="40" y="70" width="11" height="11" fill='purple'/><rect x="50" y="70" width="11" height="11" fill='yellow'/><rect x="60" y="70" width="11" height="11" fill='purple'/><rect x="70" y="70" width="11" height="11" fill='yellow'/><rect x="80" y="70" width="11" height="11" fill='purple'/><rect x="90" y="70" width="11" height="11" fill='yellow'/><rect x="100" y="70" width="11" height="11" fill='purple'/><rect x="110" y="70" width="11" height="11" fill='purple'/><rect x="120" y="70" width="11" height="11" fill='none'/><rect x="130" y="70" width="11" height="11" fill='yellow'/><rect x="140" y="70" width="11" height="11" fill='none'/><rect x="150" y="70" width="11" height="11" fill='purple'/><rect x="160" y="70" width="11" height="11" fill='none'/><rect x="170" y="70" width="11" height="11" fill='yellow'/><rect x="180" y="70" width="11" height="11" fill='purple'/><rect x="190" y="70" width="11" height="11" fill='yellow'/><rect x="200" y="70" width="11" height="11" fill='purple'/><rect x="210" y="70" width="11" height="11" fill='yellow'/></svg>